<svg width="23" height="23" viewBox="0 0 23 23" fill="none" xmlns="http://www.w3.org/2000/svg">
<path d="M12.7787 16.6254H10.5024C9.01505 16.6254 7.80887 15.3739 7.80887 13.8322C7.80887 13.4604 8.11722 13.152 8.48905 13.152C8.86087 13.152 9.16922 13.4604 9.16922 13.8322C9.16922 14.6212 9.76777 15.2651 10.5024 15.2651H12.7787C13.3681 15.2651 13.8579 14.7391 13.8579 14.1043C13.8579 13.3153 13.5767 13.1611 13.1142 12.9979L9.45943 11.7101C8.75205 11.4652 7.7998 10.9392 7.7998 9.31585C7.7998 7.91923 8.89715 6.79468 10.2394 6.79468H12.5157C14.003 6.79468 15.2092 8.0462 15.2092 9.58792C15.2092 9.95975 14.9008 10.2681 14.529 10.2681C14.1572 10.2681 13.8488 9.95975 13.8488 9.58792C13.8488 8.79892 13.2503 8.15502 12.5157 8.15502H10.2394C9.64987 8.15502 9.16015 8.68102 9.16015 9.31585C9.16015 10.1049 9.44129 10.259 9.9038 10.4223L13.5586 11.7101C14.266 11.9549 15.2182 12.4809 15.2182 14.1043C15.2092 15.4918 14.1209 16.6254 12.7787 16.6254Z" fill="#E11D48"/>
<path d="M11.5093 17.8317C11.1374 17.8317 10.8291 17.5234 10.8291 17.1516V6.2688C10.8291 5.89697 11.1374 5.58862 11.5093 5.58862C11.8811 5.58862 12.1894 5.89697 12.1894 6.2688V17.1516C12.1894 17.5234 11.8811 17.8317 11.5093 17.8317Z" fill="#E11D48"/>
<path d="M11.5094 21.4593C6.1315 21.4593 1.76025 17.0881 1.76025 11.7102C1.76025 6.3323 6.1315 1.96106 11.5094 1.96106C16.8873 1.96106 21.2585 6.3323 21.2585 11.7102C21.2585 17.0881 16.8873 21.4593 11.5094 21.4593ZM11.5094 3.3214C6.88422 3.3214 3.1206 7.08503 3.1206 11.7102C3.1206 16.3354 6.88422 20.099 11.5094 20.099C16.1346 20.099 19.8982 16.3354 19.8982 11.7102C19.8982 7.08503 16.1346 3.3214 11.5094 3.3214Z" fill="#E11D48"/>
</svg>
