<svg xmlns="http://www.w3.org/2000/svg" width="35" height="35" viewBox="0 0 35 35" fill="none">
  <path d="M23.4585 17.3927C23.7796 17.8127 23.7796 18.3796 23.4585 18.7989C22.4472 20.119 20.021 22.8371 17.1884 22.8371C14.3558 22.8371 11.9296 20.119 10.9184 18.7989C10.7622 18.5978 10.6774 18.3504 10.6774 18.0958C10.6774 17.8412 10.7622 17.5938 10.9184 17.3927C11.9296 16.0726 14.3558 13.3545 17.1884 13.3545C20.021 13.3545 22.4472 16.0726 23.4585 17.3927V17.3927Z" stroke="#909090" stroke-linecap="round" stroke-linejoin="round"/>
  <path d="M17.1884 20.128C18.3106 20.128 19.2204 19.2182 19.2204 18.096C19.2204 16.9737 18.3106 16.064 17.1884 16.064C16.0661 16.064 15.1564 16.9737 15.1564 18.096C15.1564 19.2182 16.0661 20.128 17.1884 20.128Z" stroke="#909090" stroke-linecap="round" stroke-linejoin="round"/>
  <rect x="23.7092" y="12" width="0.677332" height="17.8817" rx="0.338666" transform="rotate(50.0562 23.7092 12)" fill="#909090"/>
</svg>