<svg xmlns="http://www.w3.org/2000/svg" width="35" height="35" viewBox="0 0 35 35" fill="none">
  <path d="M23.7811 17.0383C24.1022 17.4582 24.1022 18.0251 23.7811 18.4444C22.7699 19.7645 20.3437 22.4827 17.5111 22.4827C14.6785 22.4827 12.2523 19.7645 11.241 18.4444C11.0848 18.2433 11 17.9959 11 17.7413C11 17.4867 11.0848 17.2393 11.241 17.0383C12.2523 15.7181 14.6785 13 17.5111 13C20.3437 13 22.7699 15.7181 23.7811 17.0383V17.0383Z" stroke="#909090" stroke-linecap="round" stroke-linejoin="round"/>
  <path d="M17.511 19.7735C18.6332 19.7735 19.543 18.8637 19.543 17.7415C19.543 16.6192 18.6332 15.7095 17.511 15.7095C16.3888 15.7095 15.479 16.6192 15.479 17.7415C15.479 18.8637 16.3888 19.7735 17.511 19.7735Z" stroke="#909090" stroke-linecap="round" stroke-linejoin="round"/>
</svg>