<svg width="23" height="18" viewBox="0 0 23 18" fill="none" xmlns="http://www.w3.org/2000/svg">
<path d="M19.375 10.8438C20.7611 11.8794 22 14.487 22 16.0937C22 16.5942 21.6348 17 21.1843 17H20.6875M15.4375 6.59865C16.3342 6.07994 16.9375 5.11042 16.9375 4C16.9375 2.88958 16.3342 1.92006 15.4375 1.40135M1.81569 17H16.1843C16.6348 17 17 16.5942 17 16.0937C17 12.9474 14.3714 10.3968 9 10.3968C3.62857 10.3968 1 12.9474 1 16.0937C1 16.5942 1.3652 17 1.81569 17ZM12 4C12 5.65685 10.6569 7 9 7C7.34315 7 6 5.65685 6 4C6 2.34315 7.34315 1 9 1C10.6569 1 12 2.34315 12 4Z" stroke="#2F4F4F" stroke-width="2" stroke-linecap="round"/>
</svg>
