<svg width="25" height="25" viewBox="0 0 25 25" fill="none" xmlns="http://www.w3.org/2000/svg">
<path d="M10.3262 11.5223H7.27876C6.55426 11.5223 5.96777 12.1088 5.96777 12.8333V18.7213H10.3262V11.5223V11.5223Z" stroke="#2F4F4F" stroke-width="2" stroke-miterlimit="10" stroke-linecap="round" stroke-linejoin="round"/>
<path d="M13.3754 6.29004H11.6274C10.9029 6.29004 10.3164 6.87656 10.3164 7.60106V18.7101H14.6749V7.60106C14.6749 6.87656 14.0999 6.29004 13.3754 6.29004Z" stroke="#2F4F4F" stroke-width="2" stroke-miterlimit="10" stroke-linecap="round" stroke-linejoin="round"/>
<path d="M17.7301 13.4775H14.6826V18.7101H19.0411V14.7886C19.0296 14.0641 18.4431 13.4775 17.7301 13.4775Z" stroke="#2F4F4F" stroke-width="2" stroke-miterlimit="10" stroke-linecap="round" stroke-linejoin="round"/>
<path d="M9.05 24H15.95C21.7 24 24 21.7 24 15.95V9.05C24 3.3 21.7 1 15.95 1H9.05C3.3 1 1 3.3 1 9.05V15.95C1 21.7 3.3 24 9.05 24Z" stroke="#2F4F4F" stroke-width="2" stroke-linecap="round" stroke-linejoin="round"/>
</svg>
